<?xml version="1.0" standalone="no"?>
<!DOCTYPE svg PUBLIC "-//W3C//DTD SVG 20010904//EN"
 "http://www.w3.org/TR/2001/REC-SVG-20010904/DTD/svg10.dtd">
<svg version="1.0" xmlns="http://www.w3.org/2000/svg"
 width="530.000000pt" height="530.000000pt" viewBox="0 0 530.000000 530.000000"
 preserveAspectRatio="xMidYMid meet">
<metadata>
Created by potrace 1.11, written by Peter Selinger 2001-2013
</metadata>
<g transform="translate(0.000000,530.000000) scale(0.100000,-0.100000)"
fill="#000000" stroke="none">
<path d="M1518 4002 c-351 -713 -638 -1301 -638 -1305 0 -4 249 -7 553 -7
l552 0 74 175 73 175 512 0 511 0 71 -173 70 -172 572 -3 c315 -1 572 1 572 5
-1 5 -277 591 -614 1303 l-613 1295 -529 2 -529 3 -637 -1298z m2189 -6 c310
-654 563 -1191 563 -1193 0 -2 -203 -2 -451 -1 l-451 3 -71 173 -71 172 -583
-2 -584 -3 -72 -170 -73 -170 -432 -3 c-239 -1 -432 1 -429 5 2 5 266 542 587
1196 l583 1187 461 -2 460 -3 563 -1189z"/>
<path d="M2634 4514 c-9 -21 -93 -221 -186 -444 -94 -223 -173 -411 -175 -417
-4 -10 75 -13 377 -13 210 0 380 4 378 9 -55 141 -364 889 -369 895 -5 5 -16
-8 -25 -30z m130 -508 c58 -142 106 -260 106 -262 0 -2 -99 -4 -220 -4 -121 0
-220 2 -220 4 0 2 45 111 101 242 55 132 105 250 110 263 5 13 11 22 14 20 2
-2 51 -121 109 -263z"/>
<path d="M910 1300 l0 -1300 465 0 465 0 0 593 0 592 239 -470 239 -470 342 0
342 0 239 470 239 470 0 -592 0 -593 465 0 465 0 0 1300 0 1300 -542 -2 -542
-3 -328 -610 c-180 -335 -331 -611 -335 -612 -4 -2 -157 273 -338 610 l-330
612 -543 3 -542 2 0 -1300z m1380 518 c201 -373 368 -676 373 -675 4 1 171
306 370 677 l362 675 458 3 457 2 0 -1200 0 -1200 -360 0 -360 0 -2 767 -3
767 -325 -642 -325 -642 -275 0 -275 0 -325 642 -325 642 -3 -767 -2 -767
-360 0 -360 0 0 1200 0 1200 457 -2 458 -3 365 -677z"/>
</g>
</svg>
